<?xml version="1.0" encoding="UTF-8" standalone="no"?>
<!-- Generator: Adobe Illustrator 28.0.0, SVG Export Plug-In . SVG Version: 6.00 Build 0)  -->

<svg
   version="1.1"
   id="Layer_1"
   x="0px"
   y="0px"
   viewBox="0 0 576.00005 674.99998"
   xml:space="preserve"
   sodipodi:docname="Deezer stacked 2023.svg"
   width="576.00006"
   height="675"
   inkscape:version="1.3 (0e150ed6c4, 2023-07-21)"
   xmlns:inkscape="http://www.inkscape.org/namespaces/inkscape"
   xmlns:sodipodi="http://sodipodi.sourceforge.net/DTD/sodipodi-0.dtd"
   xmlns="http://www.w3.org/2000/svg"
   xmlns:svg="http://www.w3.org/2000/svg"><defs
   id="defs2" /><sodipodi:namedview
   id="namedview2"
   pagecolor="#505050"
   bordercolor="#eeeeee"
   borderopacity="1"
   inkscape:showpageshadow="0"
   inkscape:pageopacity="0"
   inkscape:pagecheckerboard="0"
   inkscape:deskcolor="#d1d1d1"
   inkscape:zoom="0.54115914"
   inkscape:cx="200.49555"
   inkscape:cy="93.318207"
   inkscape:window-width="1920"
   inkscape:window-height="991"
   inkscape:window-x="-9"
   inkscape:window-y="-9"
   inkscape:window-maximized="1"
   inkscape:current-layer="Layer_1" />&#10;<style
   type="text/css"
   id="style1">&#10;	.st0{fill-rule:evenodd;clip-rule:evenodd;}&#10;	.st1{fill-rule:evenodd;clip-rule:evenodd;fill:#A238FF;}&#10;</style>&#10;<path
   class="st0"
   d="m 0,576.02075 h 49.61737 c 30.72174,0 52.4457,20.43843 52.4457,49.48917 0,29.05074 -21.72396,49.48918 -52.4457,49.48918 H 0 Z m 38.5631,72.24137 h 8.99778 c 9.64055,0 14.78266,-6.42673 14.78266,-22.7522 0,-16.32456 -5.14211,-22.7522 -14.78266,-22.7522 H 38.5631 Z m 150.90767,26.73698 h -81.49644 v -98.97835 h 81.49644 v 26.73697 h -43.06244 v 11.44065 h 40.49139 v 21.85215 h -40.49139 v 12.2116 h 43.06244 z m 90.75062,0 h -81.49554 v -98.97835 h 81.49554 v 26.73697 h -43.06154 v 11.44065 h 40.49139 v 21.85215 h -40.49139 v 12.2116 h 43.06154 z m 295.77866,0 c -5.5538,-15.13473 -13.3211,-31.28326 -23.7696,-49.38446 12.2197,-3.58394 19.5275,-11.28808 19.5275,-23.1133 0,-17.99647 -16.5818,-26.47969 -42.8051,-26.47969 h -53.9876 V 675 h 38.5622 v -40.94186 c 8.568,14.42967 14.8801,28.04687 19.0247,40.94186 h 43.4479 z m -62.4726,-54.75948 v -17.4819 h 13.3689 c 5.6558,0 8.8696,3.08563 8.8696,8.74141 0,5.65577 -3.2138,8.74049 -8.8696,8.74049 z m -47.8173,54.75948 H 384.2137 v -98.97835 h 81.49645 v 26.73697 H 422.6486 v 11.44065 h 40.49145 v 21.85215 H 422.6486 v 12.2116 h 43.06155 z M 289.47827,602.75772 h 39.78994 c -16.50873,13.50797 -30.09523,28.807 -40.5618,45.5044 v 26.73698 h 87.53769 v -26.73698 h -43.75304 c 10.02602,-14.58675 24.03592,-29.11212 43.75304,-45.5044 v -26.73697 h -86.76583 z"
   id="path1-6"
   style="font-variation-settings:normal;clip-rule:evenodd;opacity:1;vector-effect:none;fill:#000000;fill-opacity:1;fill-rule:evenodd;stroke-width:0.902758;stroke-linecap:butt;stroke-linejoin:miter;stroke-miterlimit:4;stroke-dasharray:none;stroke-dashoffset:0;stroke-opacity:1;-inkscape-stroke:none;stop-color:#000000;stop-opacity:1" />&#10;<path
   class="st1"
   d="m 465.20818,79.8226 c 4.84052,-28.05667 11.9442,-45.69887 19.81297,-45.73262 h 0.015 c 14.67253,0.0506 26.56611,61.23616 26.56611,136.77772 0,75.54343 -11.91045,136.77771 -26.59824,136.77771 -6.02204,0 -11.57865,-10.39734 -16.05175,-27.821 -7.06992,63.78187 -21.74061,107.62651 -38.72534,107.62651 -13.14071,0 -24.93415,-26.33798 -32.85195,-67.87442 -5.40583,78.99537 -19.01198,135.04236 -34.91508,135.04236 -9.98094,0 -19.07999,-22.20954 -25.81602,-58.37205 C 328.54343,470.895 309.82899,523.2 288.00562,523.2 c -21.82338,0 -40.57156,-52.28788 -48.63824,-126.95319 -6.68702,36.16251 -15.78609,58.37205 -25.81603,58.37205 -15.90311,0 -29.47527,-56.04699 -34.9151,-135.04236 -7.91778,41.53644 -19.67722,67.87442 -32.85196,67.87442 -16.9657,0 -31.65539,-43.8294 -38.72319,-107.62651 -4.44121,17.47453 -10.02994,27.821 -16.05198,27.821 -14.68782,0 -26.59825,-61.23428 -26.59825,-136.77771 0,-75.54156 11.91043,-136.77772 26.59825,-136.77772 7.88378,0 14.9382,17.69308 19.82797,45.73262 C 118.67,31.44438 131.3943,0 145.78245,0 c 17.0825,0 31.88704,44.46834 38.89083,109.04159 6.85305,-46.99694 17.25039,-76.95662 28.89306,-76.95662 16.31764,0 30.18946,58.92636 35.32988,141.12492 9.66416,-42.14329 23.65486,-68.58301 39.14152,-68.58301 15.48479,0 29.47526,26.45471 39.12253,68.58301 5.1573,-82.19856 19.01225,-141.12492 35.33175,-141.12492 11.6258,0 22.00604,29.96156 28.89305,76.95662 C 398.37386,44.46834 413.17844,0 430.26096,0 c 14.33911,0 27.11242,31.46128 34.94719,79.8226 z M 26.4019,157.41418 c 0,-33.76968 6.75314,-61.15153 15.08711,-61.15153 8.33422,0 15.08736,27.38185 15.08736,61.15153 0,33.76756 -6.75314,61.15128 -15.08736,61.15128 -8.33397,0 -15.08711,-27.38372 -15.08711,-61.15128 z m 493.02178,0 c 0,-33.76968 6.75314,-61.15153 15.08735,-61.15153 8.33212,0 15.08712,27.38185 15.08712,61.15153 0,33.76756 -6.755,61.15128 -15.08712,61.15128 -8.33421,0 -15.08735,-27.38372 -15.08735,-61.15128 z"
   id="path2-1"
   style="font-variation-settings:normal;clip-rule:evenodd;opacity:1;vector-effect:none;fill:#a238ff;fill-opacity:1;fill-rule:evenodd;stroke-width:1;stroke-linecap:butt;stroke-linejoin:miter;stroke-miterlimit:4;stroke-dasharray:none;stroke-dashoffset:0;stroke-opacity:1;-inkscape-stroke:none;stop-color:#000000;stop-opacity:1" />&#10;</svg>
